<svg width="295" height="221" viewBox="0 0 295 221" fill="none" xmlns="http://www.w3.org/2000/svg">
<path d="M153.453 83.9098C157.489 75.5157 160.733 67.2723 162.702 58.547C163.491 55.0433 164.34 51.5514 165.159 48.0566C165.499 46.5959 166.079 45.2329 166.827 43.9408C167.317 43.0981 168.048 42.6931 169.006 42.9267C169.967 43.1602 170.446 43.8758 170.46 44.8337C170.49 46.9448 170.602 49.0707 170.171 51.1582C167.498 64.0672 163.577 76.5535 157.613 88.342C157.501 88.5608 157.48 88.8564 157.321 89.0191C153.758 92.6647 153.598 97.0939 154.32 101.765C154.45 102.605 154.302 103.492 154.275 104.696C156.017 103.714 156.587 102.218 157.22 100.893C161.859 91.1656 166.182 81.2961 169.908 71.1693C171.318 67.3403 172.876 63.5646 174.375 59.7711C174.6 59.2005 174.828 58.6121 175.165 58.1065C175.516 57.5802 176.046 57.2313 176.738 57.32C177.595 57.4264 178.08 58.0355 178.222 58.7777C178.458 60.0077 178.225 61.2288 177.965 62.4647C175.91 72.2249 172.066 81.3404 168.131 90.4383C164.68 98.4126 161.088 106.295 156.12 113.459C155.91 113.764 155.606 114.095 155.594 114.423C155.461 118.326 155.115 122.247 155.766 126.3C157.3 125.653 157.844 124.665 158.506 123.793C166.15 113.693 172.82 102.984 178.382 91.5825C178.757 90.8079 179.165 90.0362 179.671 89.3413C180.215 88.5933 180.957 88.2326 181.935 88.5874C182.858 88.9215 182.781 89.6754 182.831 90.4176C182.991 92.8598 182.045 95.0478 181.184 97.221C178.201 104.77 174.1 111.688 169.355 118.24C167.391 120.952 165.416 123.657 163.494 126.398C161.484 129.263 159.254 131.897 156.339 133.887C155.319 134.582 154.447 135.422 153.681 136.442C152.274 138.314 151.224 138.458 149.252 137.314C148.616 136.948 148.01 136.489 147.487 135.975C139.909 128.465 132.147 121.126 125.805 112.463C119.634 104.039 114.061 95.2696 110.477 85.3705C110.019 84.1079 109.348 82.8809 109.46 81.4498C109.513 80.7994 109.682 80.211 110.279 79.8887C111.01 79.4925 111.814 79.5575 112.319 80.1696C113.017 81.0152 113.561 81.9998 114.138 82.9489C119.285 91.4199 123.732 100.314 129.672 108.315C135.323 115.931 141.94 122.628 148.631 129.272C149.054 129.689 149.456 130.209 150.408 130.011C149.944 127.72 150.053 125.375 150.08 123.033C150.092 122.004 149.97 121.111 149.107 120.366C141.647 113.915 135.66 106.15 129.891 98.2233C124.486 90.799 119.688 82.9873 116.015 74.5252C115.279 72.828 114.773 71.0333 114.037 69.3391C113.502 68.112 113.594 67.0417 114.771 66.4799C116.042 65.8738 116.852 66.8436 117.435 67.8519C119.543 71.4945 121.485 75.2378 123.732 78.7888C130.636 89.7021 137.644 100.553 146.597 109.947C147.433 110.822 148.013 112.008 149.488 112.463C149.326 109.799 149.19 107.227 149.009 104.66C148.64 99.3351 148.247 94.01 147.859 88.6879C147.765 87.4076 147.297 86.4704 146.251 85.536C133.463 74.1438 122.839 60.9686 114.395 46.0253C112.801 43.2046 111.84 40.1325 110.729 37.1196C110.602 36.7767 110.551 36.3952 110.525 36.0286C110.448 35.0588 110.117 33.9234 111.314 33.4356C112.517 32.9507 113.496 33.477 114.135 34.565C116.207 38.0895 118.265 41.6257 120.32 45.1619C127.165 56.9445 135.595 67.4734 145.251 77.0266C145.583 77.3548 145.976 77.612 146.62 78.1294C146.109 74.7529 145.665 71.7074 145.177 68.6709C144.968 67.3551 144.021 66.5154 143.081 65.6934C131.757 55.747 124.368 43.0479 118.112 29.5623C117.905 29.1128 117.636 28.6782 117.514 28.2051C117.251 27.2028 117.186 26.2005 118.259 25.5795C119.294 24.9793 119.915 25.7747 120.439 26.4163C121.299 27.4659 122.103 28.5747 122.804 29.7397C127.275 37.1936 132.138 44.3784 137.31 51.3563C138.794 53.358 140.476 55.1616 142.457 57.2697C142.472 54.8275 141.57 52.9618 141.106 51.0281C140.414 48.1423 139.483 45.3127 138.72 42.4417C138.424 41.3418 138.081 40.4962 136.993 39.7866C129.936 35.1889 125.412 28.3293 121.263 21.2332C118.898 17.1884 116.616 13.0489 115.548 8.38618C115.285 7.22419 114.365 5.99419 116.001 5.16631C117.145 4.58679 118.342 5.16631 119.161 6.90191C122.094 13.0992 126.071 18.6431 129.829 24.3229C131.257 26.4843 132.857 28.5126 135.125 30.9519C133.726 26.8095 132.555 23.3295 131.373 19.8524C129.98 15.7514 128.575 11.6534 127.18 7.55239C126.364 5.1604 126.453 3.84761 127.603 3.59037C129.362 3.19713 130.276 4.55427 131.015 5.81383C133.522 10.0893 135.488 14.6278 137.324 19.8701C138.371 16.4285 138.463 13.4304 138.569 10.4263C138.67 7.57308 138.596 4.71097 139.394 1.908C139.651 1.00028 139.891 0.157617 140.867 0.0216069C141.958 -0.129186 142.765 0.52425 143.149 1.51475C143.962 3.61403 144.344 5.81975 144.19 8.06981C143.696 15.367 143.628 22.7233 141.307 29.7751C141.026 30.6326 141.189 31.4575 141.449 32.3238C143.297 38.4857 145.095 44.6623 146.949 50.9778C148.397 49.3191 148.477 47.2642 148.841 45.4044C150.384 37.5011 151.756 29.5623 153.223 21.6412C153.379 20.8015 153.696 19.9677 154.068 19.193C154.402 18.4952 155.08 18.0074 155.854 18.0961C156.629 18.1848 157.2 18.8353 157.424 19.5449C157.646 20.2308 157.611 21.0084 157.643 21.7476C157.942 28.1401 156.78 34.364 155.482 40.5672C154.521 45.1738 153.492 49.7656 152.427 54.3485C152.093 55.7855 151.839 57.3791 151.035 58.5411C149.565 60.6729 149.574 62.7781 150.047 65.1583C151.209 70.9919 152.336 76.8373 152.723 82.7922C152.735 82.9903 152.965 83.1766 153.453 83.9098Z" fill="#E0D9CE"/>
<path d="M0.57666 164.852V170.31H20.1088V220.21H26.2795V170.31H45.8914V164.852H0.57666Z" fill="#E0D9CE"/>
<path d="M0 77.8704V83.3285H19.5321V133.229H25.7028V83.3285H45.3148V77.8704H0Z" fill="#E0D9CE"/>
<path d="M74.8927 134.019C91.5775 134.019 103.679 122.079 103.679 105.551C103.679 89.0202 91.5775 77.0809 74.9695 77.0809C58.3646 77.0809 46.2627 89.0202 46.2627 105.551C46.2627 122.079 58.3646 134.019 74.8927 134.019ZM74.9695 128.327C62.0013 128.327 52.7498 119.072 52.7498 105.551C52.7498 92.0272 62.0013 82.6957 74.9695 82.6957C87.9407 82.6957 97.1923 92.0272 97.1923 105.551C97.1923 119.072 87.9407 128.327 74.9695 128.327Z" fill="#E0D9CE"/>
<path d="M77.6988 221C94.3836 221 106.486 209.061 106.486 192.533C106.486 176.002 94.3836 164.062 77.7757 164.062C61.1707 164.062 49.0688 176.002 49.0688 192.533C49.0688 209.061 61.1707 221 77.6988 221ZM77.7757 215.308C64.8075 215.308 55.5559 206.054 55.5559 192.533C55.5559 179.009 64.8075 169.677 77.7757 169.677C90.7469 169.677 99.9985 179.009 99.9985 192.533C99.9985 206.054 90.7469 215.308 77.7757 215.308Z" fill="#E0D9CE"/>
<path d="M168.355 220.21L152.379 199.49C162.423 197.671 167.958 191.82 167.958 182.489C167.958 171.179 159.736 164.852 145.342 164.852H123.909V220.21H130V200.046H145.026L160.605 220.21H168.355ZM145.183 170.31C155.939 170.31 161.871 174.343 161.871 182.565C161.871 190.871 155.939 194.587 145.103 194.587H130V170.31H145.183Z" fill="#E0D9CE"/>
<path d="M221.527 191.82C227.618 190.002 231.255 185.02 231.255 178.772C231.255 170.15 224.375 164.852 213.225 164.852H187.206V220.21H214.254C226.353 220.21 233.866 214.596 233.866 205.66C233.866 198.62 229.12 193.322 221.527 191.82ZM211.879 170.387C220.578 170.387 225.247 173.63 225.247 179.878C225.247 185.889 220.895 189.446 212.512 189.446H193.296V170.387H211.879ZM193.296 214.675V194.984H213.305C222.556 194.984 227.775 198.384 227.775 204.868C227.775 211.116 222.873 214.675 213.225 214.675H193.296Z" fill="#E0D9CE"/>
<path d="M294.134 220.21L269.38 164.852H261.787L237.113 220.21H243.521L249.135 207.795H282.035L287.65 220.21H294.134ZM265.584 171.179L279.504 202.18H251.666L265.584 171.179Z" fill="#E0D9CE"/>
<path d="M186.89 77.8704V83.3285H206.422V133.229H212.592V83.3285H232.204V77.8704H186.89Z" fill="#E0D9CE"/>
<path d="M292.861 133.229L268.108 77.8704H260.515L235.841 133.229H242.248L247.863 120.814H280.762L286.377 133.229H292.861ZM264.311 84.1978L278.231 115.199H250.394L264.311 84.1978Z" fill="#E0D9CE"/>
</svg>
