<svg width="70" height="49" viewBox="0 0 70 49" fill="none" xmlns="http://www.w3.org/2000/svg">
<path d="M19.2309 6.20644H25.0697V7.87839H24.6329C24.3465 7.87839 24.1515 7.90401 24.0457 7.95524C23.9398 8.00648 23.8618 8.08779 23.8095 8.19918C23.7571 8.31057 23.7326 8.52333 23.7326 8.83744V12.5835H21.9765L21.5218 11.7258C20.9847 12.08 20.4276 12.3462 19.8504 12.5233C19.2732 12.7004 18.6737 12.7895 18.0508 12.7895C16.9599 12.7895 15.966 12.5233 15.069 11.992C14.172 11.4607 13.4622 10.7177 12.9396 9.76308C12.417 8.80848 12.1562 7.74026 12.1562 6.55731C12.1562 5.3855 12.4148 4.33733 12.9318 3.41169C13.4488 2.48605 14.1709 1.75645 15.0991 1.22178C16.0273 0.687118 17.0346 0.420898 18.1199 0.420898C18.6459 0.420898 19.1696 0.487731 19.6922 0.622512C20.2148 0.757293 20.6616 0.935515 21.0327 1.15829L21.3502 0.626969H22.5503L23.6301 4.58684L22.0522 5.10146C21.5151 4.23263 21.0906 3.64115 20.7786 3.32703C20.4666 3.01292 20.11 2.76675 19.7067 2.58964C19.3033 2.41253 18.9111 2.32342 18.5277 2.32342C17.9851 2.32342 17.477 2.48048 17.0056 2.7946C16.5343 3.10871 16.161 3.56764 15.8869 4.17025C15.6128 4.77286 15.4757 5.50357 15.4757 6.36015C15.4757 7.30251 15.6261 8.1201 15.9259 8.81182C16.2256 9.50355 16.619 10.0159 17.1048 10.3501C17.5906 10.6843 18.1255 10.8514 18.7083 10.8514C19.1194 10.8514 19.5094 10.7689 19.8783 10.603C20.2471 10.437 20.5 10.2521 20.6371 10.046C20.7741 9.83994 20.8432 9.5637 20.8432 9.21505V8.77841C20.8432 8.47543 20.8232 8.28384 20.7831 8.20364C20.7195 8.08891 20.636 8.00648 20.5301 7.95524C20.4243 7.90401 20.217 7.87839 19.9083 7.87839H19.2309V6.20644Z" fill="#F15B22"/>
<path d="M30.645 3.82422C31.6222 3.82422 32.4746 4.01581 33.2 4.39899C33.9254 4.78216 34.4848 5.30346 34.8759 5.96289C35.267 6.62342 35.4631 7.39535 35.4631 8.282C35.4631 9.61867 35.0286 10.7047 34.1594 11.539C33.2903 12.3733 32.1303 12.7899 30.6784 12.7899C29.1975 12.7899 28.0208 12.37 27.1461 11.5301C26.3004 10.7303 25.877 9.64763 25.877 8.282C25.877 7.38532 26.0697 6.6134 26.4553 5.96734C26.8408 5.32129 27.4002 4.80333 28.1311 4.41124C28.8632 4.01915 29.7012 3.82422 30.645 3.82422ZM30.6784 5.70112C30.353 5.70112 30.0466 5.79803 29.7613 5.99296C29.475 6.18678 29.2543 6.47305 29.0972 6.85066C28.9401 7.22826 28.861 7.70835 28.861 8.29091C28.861 8.8913 28.9379 9.3881 29.0928 9.78241C29.2477 10.1767 29.4605 10.4686 29.7313 10.6568C30.0031 10.8451 30.3018 10.9397 30.6271 10.9397C31.1297 10.9397 31.562 10.727 31.9219 10.3015C32.2818 9.87598 32.4624 9.21433 32.4624 8.31765C32.4624 7.44882 32.2952 6.79608 31.9609 6.35943C31.6266 5.91944 31.1988 5.70112 30.6784 5.70112Z" fill="#F15B22"/>
<path d="M41.5337 3.82422C42.5109 3.82422 43.3633 4.01581 44.0887 4.39899C44.8141 4.78216 45.3735 5.30346 45.7646 5.96289C46.1557 6.62342 46.3518 7.39535 46.3518 8.282C46.3518 9.61867 45.9173 10.7047 45.0481 11.539C44.179 12.3733 43.019 12.7899 41.5671 12.7899C40.0862 12.7899 38.9095 12.37 38.0348 11.5301C37.1891 10.7303 36.7656 9.64763 36.7656 8.282C36.7656 7.38532 36.9584 6.6134 37.3439 5.96734C37.7295 5.32129 38.2889 4.80333 39.0198 4.41124C39.753 4.01915 40.591 3.82422 41.5337 3.82422ZM41.5682 5.70112C41.2428 5.70112 40.9364 5.79803 40.6511 5.99296C40.3648 6.18678 40.1441 6.47305 39.987 6.85066C39.8299 7.22826 39.7508 7.70835 39.7508 8.29091C39.7508 8.8913 39.8277 9.3881 39.9826 9.78241C40.1375 10.1767 40.3503 10.4686 40.6211 10.6568C40.8929 10.8451 41.1916 10.9397 41.5169 10.9397C42.0195 10.9397 42.4518 10.727 42.8117 10.3015C43.1717 9.87598 43.3522 9.21433 43.3522 8.31765C43.3522 7.44882 43.185 6.79608 42.8507 6.35943C42.5153 5.91944 42.0886 5.70112 41.5682 5.70112Z" fill="#F15B22"/>
<path d="M56.5471 0V9.96819C56.5471 10.3625 56.5638 10.6009 56.5983 10.6844C56.6329 10.7669 56.6908 10.8292 56.7744 10.8682C56.8568 10.9083 57.0764 10.9284 57.4307 10.9284H57.8341V12.5825L54.1123 12.7106V11.8273C53.5753 12.1871 53.1028 12.4377 52.6972 12.5769C52.2916 12.7173 51.8849 12.7874 51.4793 12.7874C50.8219 12.7874 50.2168 12.6092 49.6652 12.2517C49.1137 11.8941 48.6624 11.365 48.3103 10.6621C47.9593 9.95928 47.7832 9.17956 47.7832 8.32186C47.7832 7.45303 47.9615 6.66663 48.3203 5.96042C48.678 5.25422 49.1449 4.72178 49.7198 4.36199C50.2948 4.0022 50.9377 3.82175 51.6475 3.82175C52.0141 3.82175 52.364 3.86631 52.6994 3.95431C53.0348 4.04342 53.4048 4.19825 53.8115 4.42103V2.38372H52.5601V0.729596C53.2677 0.660535 53.8416 0.573654 54.2839 0.467835C54.7263 0.362015 55.2032 0.206071 55.7169 0.00111498H56.5471V0ZM53.807 10.1319V7.26033C53.807 6.90054 53.7814 6.64657 53.7301 6.49731C53.6611 6.28567 53.5051 6.09966 53.2621 5.94037C53.0192 5.77997 52.7485 5.70088 52.451 5.70088C52.1412 5.70088 51.8559 5.79334 51.5918 5.97936C51.3289 6.16538 51.1194 6.44942 50.9645 6.8326C50.8096 7.21577 50.7327 7.69252 50.7327 8.26394C50.7327 9.05815 50.9077 9.69529 51.2564 10.1754C51.525 10.553 51.8838 10.7412 52.3295 10.7412C52.5245 10.7412 52.7106 10.7089 52.8877 10.6432C53.066 10.5764 53.3713 10.406 53.807 10.1319Z" fill="#F15B22"/>
<path d="M9.09034 18.7659L10.1188 22.777L8.51537 23.2314C7.98497 22.2746 7.38214 21.574 6.70911 21.1295C6.03609 20.6851 5.3196 20.4634 4.56077 20.4634C4.06937 20.4634 3.68271 20.5637 3.4008 20.7642C3.11777 20.9647 2.97737 21.1874 2.97737 21.4336C2.97737 21.7143 3.10552 21.9739 3.36292 22.2145C3.61474 22.4551 4.07717 22.6689 4.75243 22.8583L7.05009 23.5277C8.32483 23.8942 9.23408 24.3799 9.77674 24.9858C10.3138 25.5973 10.5824 26.3102 10.5824 27.1222C10.5824 28.1571 10.1712 29.0326 9.34774 29.7466C8.42734 30.5363 7.28409 30.9306 5.91797 30.9306C5.28394 30.9306 4.70006 30.8493 4.16854 30.6867C3.63703 30.5241 3.08212 30.2512 2.50492 29.868L2.12717 30.7257H0.849087L0 26.0886L1.60346 25.7032C1.9812 26.6455 2.56843 27.433 3.36514 28.0646C4.16297 28.6962 5.0388 29.0114 5.99374 29.0114C6.42274 29.0114 6.7782 28.9568 7.06123 28.8488C7.34426 28.7407 7.55709 28.5892 7.69971 28.3943C7.84234 28.2005 7.91366 28 7.91366 27.7939C7.91366 27.4508 7.74763 27.1568 7.41669 26.9117C7.07906 26.6656 6.49071 26.4227 5.65054 26.1832L3.65151 25.6007C3.34843 25.5149 2.93837 25.3534 2.42134 25.1161C1.90432 24.8789 1.50652 24.6316 1.23017 24.3743C0.952715 24.117 0.723172 23.7873 0.540429 23.384C0.357686 22.9808 0.266314 22.5564 0.266314 22.1109C0.266314 21.4771 0.442373 20.8923 0.793373 20.3576C1.14437 19.8229 1.67366 19.3907 2.38011 19.0588C3.08657 18.7269 3.86769 18.562 4.72569 18.562C5.75974 18.562 6.69463 18.8305 7.52923 19.3674L7.86351 18.767H9.09034V18.7659Z" fill="#F15B22"/>
<path d="M11.4473 22.1687L15.452 22.0918V27.6546C15.452 28.0489 15.4765 28.3118 15.5244 28.4432C15.5724 28.5746 15.6615 28.6816 15.7896 28.7651C15.9178 28.8475 16.0794 28.8899 16.2744 28.8899C16.5596 28.8899 16.8627 28.8208 17.1836 28.6838C17.3095 28.627 17.6438 28.4243 18.1865 28.0756V24.7328C18.1865 24.441 18.1631 24.2416 18.1174 24.1324C18.0717 24.0244 18.0048 23.9453 17.919 23.8963C17.8332 23.8473 17.6661 23.8239 17.4187 23.8239H16.9184V22.1698L20.9399 22.0929V28.2304C20.9399 28.5501 20.9588 28.7517 20.9956 28.8353C21.0323 28.9177 21.0925 28.9779 21.1761 29.0157C21.2586 29.0525 21.458 29.0714 21.7722 29.0714H22.2269V30.7256L18.4628 30.828V29.8166C17.9603 30.1887 17.4555 30.4671 16.9474 30.652C16.4393 30.8381 15.9289 30.9305 15.4152 30.9305C15.0041 30.9305 14.6263 30.8637 14.2809 30.7289C13.9355 30.5952 13.6458 30.4148 13.4118 30.1887C13.1778 29.9625 13.0039 29.6986 12.8892 29.3956C12.7755 29.0926 12.7176 28.7038 12.7176 28.2293V24.6983C12.7176 24.373 12.6986 24.167 12.6618 24.0812C12.624 23.9954 12.5627 23.9308 12.4758 23.8885C12.39 23.8462 12.205 23.8239 11.9231 23.8239H11.4484V22.1687H11.4473Z" fill="#F15B22"/>
<path d="M29.068 22.1688H30.1912L30.8854 24.5514L29.2652 25.2031C28.9565 24.7063 28.5688 24.3164 28.103 24.0335C27.6372 23.7505 27.1759 23.6091 26.7179 23.6091C26.4148 23.6091 26.1886 23.6603 26.0404 23.7639C25.8922 23.8664 25.8176 23.99 25.8176 24.1326C25.8176 24.2529 25.87 24.3643 25.9758 24.4668C26.0817 24.5693 26.3001 24.6784 26.6321 24.792L28.99 25.6319C29.4067 25.7801 29.8078 25.9661 30.19 26.1888C30.5734 26.4116 30.8597 26.6845 31.0514 27.0076C31.243 27.3306 31.3389 27.7093 31.3389 28.1437C31.3389 28.9212 31.0414 29.5584 30.4474 30.0552C29.7499 30.6377 28.8808 30.9296 27.8411 30.9296C26.9497 30.9296 26.1719 30.7034 25.5089 30.2523L25.2694 30.7235H24.1294L23.0742 27.912L24.6944 27.2259C25.1 27.8597 25.6003 28.3587 26.1953 28.7218C26.7892 29.085 27.3352 29.2665 27.8333 29.2665C28.142 29.2665 28.4016 29.1952 28.6133 29.0527C28.7738 28.9379 28.8529 28.8043 28.8529 28.6494C28.8529 28.518 28.7894 28.3921 28.6646 28.2718C28.5387 28.1515 28.2612 28.0179 27.8333 27.8686L25.9814 27.2259C24.9585 26.8661 24.262 26.4818 23.8932 26.073C23.5244 25.6642 23.3405 25.1797 23.3405 24.6205C23.3405 23.9009 23.6291 23.295 24.2063 22.8037C24.8638 22.2435 25.675 21.9639 26.641 21.9639C27.499 21.9639 28.2334 22.1577 28.8451 22.5464L29.068 22.1688Z" fill="#F15B22"/>
<path d="M36.4531 18.1396V22.8971C37.0192 22.554 37.5195 22.3134 37.9541 22.173C38.3886 22.0327 38.8087 21.9625 39.2143 21.9625C39.757 21.9625 40.2417 22.0784 40.6674 22.31C41.093 22.5417 41.4061 22.8313 41.6067 23.18C41.8062 23.5286 41.9064 23.9942 41.9064 24.5768V28.1513C41.9064 28.4999 41.9209 28.7116 41.9488 28.7851C41.9945 28.8942 42.0803 28.9733 42.2062 29.0246C42.2808 29.0535 42.4836 29.0669 42.8146 29.0669H43.218V30.721H38.168V29.0669H38.4254C38.6717 29.0669 38.8399 29.0446 38.9313 28.9978C39.0227 28.9522 39.0862 28.8876 39.1196 28.8051C39.1542 28.7227 39.1709 28.5211 39.1709 28.2003V25.2429C39.1709 24.8542 39.1464 24.5957 39.0984 24.4677C39.0494 24.3396 38.9636 24.2337 38.8377 24.1502C38.7129 24.0678 38.5558 24.0254 38.3675 24.0254C38.1 24.0254 37.8192 24.08 37.5251 24.1881C37.232 24.2972 36.8743 24.4966 36.452 24.7885V28.2003C36.452 28.5255 36.4687 28.7294 36.5033 28.8085C36.5378 28.8887 36.6024 28.9511 36.6983 28.9967C36.7941 29.0424 36.9757 29.0658 37.242 29.0658H37.4292V30.7199H32.4473V29.0658H32.9275C33.2072 29.0658 33.3866 29.0468 33.4635 29.0101C33.5404 28.9733 33.5994 28.9098 33.6396 28.8207C33.6797 28.7316 33.6997 28.5567 33.6997 28.2927V20.5189H32.4484V18.8692C32.9231 18.8403 33.4557 18.759 34.0474 18.6253C34.6391 18.4916 35.1717 18.3301 35.6464 18.1408H36.4531V18.1396Z" fill="#F15B22"/>
<path d="M48.3524 21.9625V28.2972C48.3524 28.6002 48.3691 28.7862 48.4036 28.8541C48.4382 28.9221 48.4995 28.9756 48.5875 29.0123C48.6755 29.0491 48.875 29.068 49.1836 29.068H49.6472V30.7221H44.3477V29.068H44.8023C45.0998 29.068 45.2892 29.0524 45.3728 29.0212C45.4553 28.99 45.5165 28.9366 45.5567 28.8631C45.5968 28.7884 45.6168 28.6403 45.6168 28.4175V24.3284H44.3477V22.7166C44.7989 22.6943 45.2324 22.6453 45.6469 22.5707C46.0614 22.4961 46.4314 22.4081 46.7578 22.3045C46.9696 22.2354 47.2292 22.1218 47.5378 21.9614H48.3524V21.9625ZM46.9629 18.1396C47.3975 18.1396 47.7674 18.2923 48.0738 18.5986C48.3791 18.9038 48.5329 19.2747 48.5329 19.7091C48.5329 20.1491 48.3803 20.5223 48.0738 20.8275C47.7674 21.1327 47.3975 21.2864 46.9629 21.2864C46.5283 21.2864 46.1584 21.1338 45.8519 20.8275C45.5466 20.5223 45.3928 20.1513 45.3928 19.7169C45.3928 19.2881 45.55 18.9183 45.8642 18.6064C46.1807 18.2956 46.5461 18.1396 46.9629 18.1396Z" fill="#F15B22"/>
<path d="M64.6375 22.8458H68.8395V24.491H68.3247C68.0327 24.491 67.8299 24.52 67.7163 24.5768C67.6015 24.6336 67.5079 24.7316 67.4332 24.8686C67.3875 24.9433 67.2928 25.263 67.1502 25.8288C67.0533 26.1886 66.9017 26.5907 66.6956 27.0329C66.4894 27.4763 66.261 27.8773 66.0092 28.237C66.261 28.6202 66.4705 28.8708 66.6399 28.9911C66.8081 29.1114 66.9786 29.1716 67.1502 29.1716C67.3497 29.1716 67.519 29.1048 67.6561 28.97C67.7931 28.8363 67.8622 28.6625 67.8622 28.4509C67.8622 28.2448 67.7764 27.9964 67.6048 27.7057C67.4388 27.4428 67.3563 27.2145 67.3563 27.0196C67.3563 26.7277 67.4711 26.4726 67.6996 26.2521C67.928 26.0327 68.2021 25.9224 68.523 25.9224C68.9398 25.9224 69.2908 26.0895 69.5738 26.4236C69.8568 26.7578 69.9983 27.2312 69.9983 27.8427C69.9983 28.7338 69.6819 29.4712 69.0512 30.0538C68.4194 30.6364 67.5837 30.9282 66.5429 30.9282C66.0226 30.9282 65.5913 30.8625 65.2481 30.731C64.9049 30.5996 64.5339 30.3479 64.1338 29.9769C63.219 30.6107 62.156 30.9282 60.9436 30.9282C59.6522 30.9282 58.6025 30.5573 57.7969 29.8143C56.9913 29.0713 56.5879 28.1624 56.5879 27.0886C56.5879 26.1919 56.8453 25.4111 57.3601 24.7483C57.7657 24.2226 58.4465 23.6946 59.4003 23.1622C59.0003 22.9049 58.6983 22.6063 58.4955 22.2666C58.2927 21.9269 58.1913 21.5481 58.1913 21.1304C58.1913 20.4164 58.4699 19.8094 59.0271 19.3092C59.5842 18.8091 60.3118 18.5596 61.2088 18.5596C62.1237 18.5596 62.8379 18.7901 63.3527 19.2491C63.8675 19.7091 64.1249 20.2872 64.1249 20.9845C64.1249 21.5671 63.979 22.065 63.6881 22.476C63.4597 22.7957 63.1132 23.073 62.6507 23.307C62.9705 23.4495 63.2223 23.601 63.4051 23.7614C63.6569 23.9842 63.911 24.2905 64.1684 24.6782C64.3344 24.9243 64.6576 25.5359 65.1378 26.5127C65.4688 25.7586 65.6348 25.2184 65.6348 24.8931C65.6348 24.8018 65.6058 24.7205 65.549 24.6492C65.4922 24.5779 65.4142 24.5334 65.3172 24.5166C65.2481 24.4999 65.023 24.491 64.6397 24.491V22.8458H64.6375ZM61.1654 24.2003C60.6105 24.4866 60.1904 24.8419 59.9051 25.2674C59.6187 25.6929 59.4761 26.1485 59.4761 26.6342C59.4761 27.2624 59.689 27.7959 60.1146 28.2326C60.5403 28.6692 61.0539 28.8887 61.6534 28.8887C62.117 28.8887 62.5827 28.7828 63.0507 28.5712C62.9193 28.354 62.8112 28.1167 62.7254 27.8594L62.2618 26.2565C62.0958 25.6963 61.9621 25.3053 61.8585 25.0825C61.7559 24.8597 61.6557 24.6882 61.5587 24.5679C61.4618 24.4487 61.3303 24.3262 61.1654 24.2003ZM61.191 20.1457C60.928 20.1457 60.7141 20.2505 60.5481 20.4588C60.382 20.6671 60.2996 20.9711 60.2996 21.3721C60.2996 21.7264 60.3854 22.0082 60.557 22.2165C60.7286 22.4248 60.9314 22.5295 61.1654 22.5295C61.3136 22.5295 61.4629 22.4827 61.6111 22.388C61.7593 22.2933 61.8651 22.1697 61.9287 22.0149C62.02 21.8144 62.0657 21.586 62.0657 21.3287C62.0657 20.9288 61.9799 20.6314 61.8083 20.4376C61.6367 20.2427 61.4306 20.1457 61.191 20.1457Z" fill="#F15B22"/>
<path d="M11.6113 36.9062H17.936C18.7372 36.9062 19.4024 36.9876 19.9317 37.1502C20.461 37.3128 20.9156 37.5601 21.2956 37.892C21.6756 38.224 21.9686 38.6161 22.1748 39.0705C22.3809 39.525 22.4834 40.0062 22.4834 40.5152C22.4834 41.5378 22.0901 42.3955 21.3045 43.0872C20.5189 43.7789 19.4336 44.1243 18.0508 44.1243H16.0105V46.3609C16.0105 46.6405 16.0306 46.8176 16.0707 46.8923C16.122 47.0014 16.2011 47.0805 16.3069 47.1318C16.4128 47.183 16.5911 47.2086 16.8429 47.2086H17.4513V48.8627H11.6124V47.2086H12.018C12.3746 47.2086 12.6108 47.183 12.7256 47.1318C12.8404 47.0805 12.924 46.9992 12.9752 46.8878C13.0265 46.7764 13.0532 46.547 13.0532 46.1972V39.623C13.0532 39.2577 13.0298 39.016 12.9841 38.899C12.9384 38.782 12.8649 38.6963 12.7646 38.6417C12.6643 38.5871 12.4727 38.5604 12.1908 38.5604H11.6124V36.9062H11.6113ZM16.0105 38.8611V42.2551H17.0312C17.6541 42.2551 18.1121 42.1905 18.4029 42.0624C18.6948 41.9343 18.9288 41.7372 19.106 41.471C19.2832 41.2047 19.3723 40.8895 19.3723 40.5242C19.3723 39.9761 19.1606 39.5417 18.7383 39.2209C18.4241 38.9814 17.9583 38.8611 17.341 38.8611H16.0105Z" fill="#F15B22"/>
<path d="M27.1883 40.1027V46.4373C27.1883 46.7403 27.2051 46.9263 27.2396 46.9943C27.2741 47.0622 27.3354 47.1157 27.4235 47.1525C27.5115 47.1892 27.7109 47.2082 28.0196 47.2082H28.4831V48.8623H23.1836V47.2082H23.6382C23.9357 47.2082 24.1252 47.1926 24.2087 47.1614C24.2912 47.1302 24.3525 47.0767 24.3926 47.0032C24.4327 46.9286 24.4528 46.7804 24.4528 46.5576V42.4686H23.1836V40.8579C23.6349 40.8356 24.0683 40.7866 24.4829 40.7119C24.8974 40.6373 25.2673 40.5493 25.5938 40.4457C25.8055 40.3767 26.0651 40.2631 26.3738 40.1027H27.1883ZM25.7999 36.2798C26.2345 36.2798 26.6045 36.4324 26.9109 36.7387C27.2162 37.0439 27.37 37.4148 27.37 37.8493C27.37 38.2892 27.2173 38.6624 26.9109 38.9676C26.6045 39.2728 26.2345 39.4265 25.7999 39.4265C25.3654 39.4265 24.9954 39.2739 24.689 38.9676C24.3837 38.6624 24.2299 38.2915 24.2299 37.857C24.2299 37.4282 24.387 37.0584 24.7013 36.7465C25.0166 36.4357 25.3821 36.2798 25.7999 36.2798Z" fill="#F15B22"/>
<path d="M30.724 40.3091H37.9947V41.9632L32.8924 47.0548H34.0501C34.6674 47.0548 35.1399 46.9891 35.4697 46.8565C35.7984 46.7251 36.0881 46.5179 36.34 46.2372C36.5116 46.0478 36.7088 45.707 36.9317 45.2135L38.4839 45.7961L37.3517 48.8626H29.2832V47.2085L34.3421 42.1169H33.5531C33.0495 42.1169 32.6628 42.1671 32.3909 42.2673C32.1191 42.3676 31.8583 42.5558 31.6065 42.8309C31.4806 42.9635 31.2544 43.3043 30.929 43.8546L29.4281 43.1606L30.724 40.3091Z" fill="#F15B22"/>
<path d="M40.558 40.3091H47.8287V41.9632L42.7264 47.0548H43.8841C44.5014 47.0548 44.9739 46.9891 45.3037 46.8565C45.6324 46.7251 45.9221 46.5179 46.174 46.2372C46.3456 46.0478 46.5428 45.707 46.7656 45.2135L48.3178 45.7961L47.1857 48.8626H39.1172V47.2085L44.176 42.1169H43.3871C42.8835 42.1169 42.4968 42.1671 42.2249 42.2673C41.953 42.3676 41.6923 42.5558 41.4405 42.8309C41.3146 42.9635 41.0884 43.3043 40.763 43.8546L39.262 43.1606L40.558 40.3091Z" fill="#F15B22"/>
<path d="M54.3406 43.677V43.0432C54.3406 42.6656 54.3094 42.4061 54.2459 42.2635C54.1824 42.1209 54.0687 42.0017 53.9027 41.9081C53.7366 41.8135 53.5305 41.7667 53.2854 41.7667C53.097 41.7667 52.9254 41.7979 52.7706 41.8614C52.6157 41.9249 52.4931 42.0039 52.4017 42.1009C52.3104 42.1978 52.2045 42.3871 52.0842 42.6667C51.9293 43.0209 51.7454 43.2749 51.5315 43.4297C51.3175 43.5846 51.0646 43.6614 50.7726 43.6614C50.4072 43.6614 50.1063 43.5467 49.8723 43.3183C49.6383 43.09 49.5202 42.8071 49.5202 42.4696C49.5202 42.0864 49.6405 41.7466 49.8801 41.4492C50.1999 41.0549 50.6779 40.7319 51.312 40.4801C51.946 40.2284 52.6614 40.1025 53.4558 40.1025C54.2503 40.1025 54.9267 40.2306 55.4838 40.4879C56.041 40.7452 56.4299 41.0527 56.6505 41.4091C56.87 41.7667 56.9803 42.3103 56.9803 43.0421V46.1109C56.9803 46.4885 57.0004 46.7291 57.0405 46.8349C57.0806 46.9407 57.1664 47.0332 57.2979 47.1134C57.4294 47.1936 57.5754 47.2337 57.7347 47.2337C57.8952 47.2337 58.1091 47.188 58.3776 47.0966V48.7686C57.8918 48.9234 57.426 49.0003 56.9803 49.0003C56.4544 49.0003 56.0053 48.9145 55.6343 48.743C55.2621 48.5714 54.9512 48.3141 54.6994 47.971C54.1278 48.3431 53.6085 48.6071 53.1427 48.7641C52.677 48.9212 52.2268 49.0003 51.7922 49.0003C50.9743 49.0003 50.3147 48.7708 49.811 48.3108C49.3074 47.8508 49.0566 47.2838 49.0566 46.6088C49.0566 46.2256 49.1436 45.8747 49.3185 45.5539C49.4923 45.2342 49.7531 44.9535 50.0985 44.714C50.4439 44.4745 50.9788 44.2607 51.702 44.0758C52.4274 43.8909 53.3054 43.7572 54.3406 43.677ZM54.3406 45.1006C53.5918 45.2097 53.0625 45.3189 52.7538 45.4303C52.4452 45.5417 52.2246 45.682 52.0931 45.8502C51.9616 46.0184 51.8958 46.1922 51.8958 46.3693C51.8958 46.5976 51.9816 46.7892 52.1532 46.944C52.3248 47.0989 52.5566 47.1757 52.8474 47.1757C53.0358 47.1757 53.2542 47.1267 53.5038 47.0298C53.7522 46.9329 54.0308 46.7903 54.3395 46.601V45.1006H54.3406Z" fill="#F15B22"/>
</svg>
